HIERARCHY
ROOT joint_Root
{
	OFFSET 0.0 0.0 0.0
	CHANNELS 6 Xposition Yposition Zposition Zrotation Xrotation Yrotation 
	JOINT Hips
	{
		OFFSET 4.5925 91.4895 -427.239
		CHANNELS 6 Xposition Yposition Zposition Zrotation Xrotation Yrotation 
		JOINT Spine
		{
			OFFSET 15.7357 0.0 0.0
			CHANNELS 6 Xposition Yposition Zposition Zrotation Xrotation Yrotation 
			JOINT Chest
			{
				OFFSET 8.98455 -0.406207 0.0
				CHANNELS 6 Xposition Yposition Zposition Zrotation Xrotation Yrotation 
				JOINT Neck
				{
					OFFSET 16.3773 0.0 0.0
					CHANNELS 6 Xposition Yposition Zposition Zrotation Xrotation Yrotation 
					JOINT Head
					{
						OFFSET 6.45672 0.0 0.0
						CHANNELS 6 Xposition Yposition Zposition Zrotation Xrotation Yrotation 
						End Site
						{
							OFFSET 0.0 0.0 0.0
						}
					}
				}
				JOINT Shoulder_L
				{
					OFFSET 12.9942 -0.242716 4.98039
					CHANNELS 6 Xposition Yposition Zposition Zrotation Xrotation Yrotation 
					JOINT UpperArm_L
					{
						OFFSET 5.34809 0.0 0.0
						CHANNELS 6 Xposition Yposition Zposition Zrotation Xrotation Yrotation 
						JOINT LowerArm_L
						{
							OFFSET 24.3286 1.87007e-05 0.0
							CHANNELS 6 Xposition Yposition Zposition Zrotation Xrotation Yrotation 
							JOINT Hand_L
							{
								OFFSET 22.2916 0.0 0.0
								CHANNELS 6 Xposition Yposition Zposition Zrotation Xrotation Yrotation 
								End Site
								{
									OFFSET 0.0 0.0 0.0
								}
							}
						}
					}
				}
				JOINT Shoulder_R
				{
					OFFSET 12.9945 -0.242716 -4.98039
					CHANNELS 6 Xposition Yposition Zposition Zrotation Xrotation Yrotation 
					JOINT UpperArm_R
					{
						OFFSET -5.34813 0.0 0.0
						CHANNELS 6 Xposition Yposition Zposition Zrotation Xrotation Yrotation 
						JOINT LowerArm_R
						{
							OFFSET -24.3289 0.000322201 0.0
							CHANNELS 6 Xposition Yposition Zposition Zrotation Xrotation Yrotation 
							JOINT Hand_R
							{
								OFFSET -22.2915 -0.000108084 0.0
								CHANNELS 6 Xposition Yposition Zposition Zrotation Xrotation Yrotation 
								End Site
								{
									OFFSET 0.0 0.0 0.0
								}
							}
						}
					}
				}
			}
		}
		JOINT UpperLeg_L
		{
			OFFSET -2.19248 -6.46944 0.0
			CHANNELS 6 Xposition Yposition Zposition Zrotation Xrotation Yrotation 
			JOINT LowerLeg_L
			{
				OFFSET 39.0811 0.0 -1.23785e-05
				CHANNELS 6 Xposition Yposition Zposition Zrotation Xrotation Yrotation 
				JOINT Foot_L
				{
					OFFSET 40.9854 0.0 -1.26872e-05
					CHANNELS 6 Xposition Yposition Zposition Zrotation Xrotation Yrotation 
					JOINT Toes_L
					{
						OFFSET 11.7543 0.0 0.0
						CHANNELS 6 Xposition Yposition Zposition Zrotation Xrotation Yrotation 
						End Site
						{
							OFFSET 0.0 0.0 0.0
						}
					}
				}
			}
		}
		JOINT UpperLeg_R
		{
			OFFSET -2.19251 6.46944 0.0
			CHANNELS 6 Xposition Yposition Zposition Zrotation Xrotation Yrotation 
			JOINT LowerLeg_R
			{
				OFFSET -39.0811 -0.00228153 -0.0401928
				CHANNELS 6 Xposition Yposition Zposition Zrotation Xrotation Yrotation 
				JOINT Foot_R
				{
					OFFSET -40.9854 0.0 0.0
					CHANNELS 6 Xposition Yposition Zposition Zrotation Xrotation Yrotation 
					JOINT Toes_R
					{
						OFFSET -11.7543 0.0 0.0
						CHANNELS 6 Xposition Yposition Zposition Zrotation Xrotation Yrotation 
						End Site
						{
							OFFSET 0.0 0.0 0.0
						}
					}
				}
			}
		}
	}
}
MOTION
Frames:	5
Frame Time:	0.0333333
0.000000 0.000000 0.000000 0.000000 0.000000 -0.000000 -0.121937 82.524900 0.309414 88.868800 -14.877800 13.646800 15.735700 0.000005 -0.000001 76.409200 79.217000 -75.083700 8.984550 -0.406207 -0.000000 13.291300 -4.951120 3.229890 16.377300 -0.000001 -0.000001 -1.216210 3.187160 1.046480 6.456720 -0.000001 -0.000000 -6.998570 10.968200 -4.200550 12.994200 -0.242716 4.980390 -90.896600 3.146650 -74.086700 5.348090 -0.000007 -0.000001 -67.286600 30.446200 -7.253760 24.328600 0.000019 0.000005 7.118000 14.111000 -27.121900 22.291600 -0.000001 0.000005 13.363600 5.225410 2.073230 12.994500 -0.242716 -4.980390 86.873800 13.438700 -76.774800 -5.348130 -0.000001 -0.000004 -60.478900 4.632070 -5.440920 -24.328900 0.000322 -0.000009 -4.668180 -12.648500 -20.445300 -22.291500 -0.000108 -0.000004 13.545800 5.301850 0.027090 -2.192480 -6.469440 -0.000000 -171.918000 -17.006600 -8.927190 39.081100 -0.000007 -0.000012 -0.546587 0.306410 60.726800 40.985400 -0.000006 -0.000013 -2.063080 -0.777516 -86.829900 11.754300 -0.000000 0.000003 -0.000353 -0.002981 -16.688000 -2.192510 6.469440 -0.000001 177.808000 3.691470 167.499000 -39.081100 -0.002282 -0.040193 0.030723 -0.014977 61.454500 -40.985400 0.000008 0.000006 8.295570 7.910580 -85.500500 -11.754300 -0.000006 -0.000006 -0.329767 -0.409502 -17.379000
0.000000 0.000000 0.000000 0.000000 0.000000 -0.000000 -0.957514 84.138500 0.569932 88.053900 -11.747000 12.780500 15.735700 0.000005 -0.000001 76.560600 80.197300 -75.688200 8.984550 -0.406207 -0.000000 11.363100 -4.493430 2.192080 16.377300 -0.000001 -0.000001 -0.048482 2.058880 0.979277 6.456720 -0.000001 -0.000000 -5.730700 8.581350 -3.105140 12.994200 -0.242716 4.980390 -90.979300 3.277290 -73.353900 5.348090 -0.000007 -0.000001 -67.332300 28.806400 -7.840640 24.328600 0.000019 0.000005 6.746930 13.935600 -26.161700 22.291600 -0.000001 0.000005 13.554800 5.188770 2.999630 12.994500 -0.242716 -4.980390 86.785800 12.685700 -75.654900 -5.348130 -0.000001 -0.000004 -58.750900 -0.985890 -4.488420 -24.328900 0.000322 -0.000009 -4.017160 -12.553700 -17.901000 -22.291500 -0.000108 -0.000004 11.205000 5.263390 1.077950 -2.192480 -6.469440 -0.000000 -171.269000 -14.644600 -7.849230 39.081100 -0.000007 -0.000012 -0.489656 0.326931 56.271000 40.985400 -0.000006 -0.000013 -2.086630 0.310776 -84.349300 11.754300 -0.000000 0.000003 -0.000322 -0.002761 -16.680200 -2.192510 6.469440 -0.000001 178.637000 6.611020 169.969000 -39.081100 -0.002282 -0.040193 0.042198 -0.025838 56.460800 -40.985400 0.000008 0.000006 8.286400 7.647340 -83.356100 -11.754300 -0.000006 -0.000006 -0.411397 -0.508109 -17.493400
0.000000 0.000000 0.000000 0.000000 0.000000 -0.000000 -1.624580 86.374200 0.710467 87.739600 -8.455640 10.805200 15.735700 0.000005 -0.000001 74.485000 81.699700 -74.473500 8.984550 -0.406207 -0.000000 8.248500 -4.420440 0.341959 16.377300 -0.000001 -0.000001 2.315190 0.935541 1.096220 6.456720 -0.000001 -0.000000 -4.310750 6.316210 -0.955730 12.994200 -0.242716 4.980390 -90.907100 2.853930 -72.357700 5.348090 -0.000007 -0.000001 -67.824800 27.334000 -6.833270 24.328600 0.000019 0.000005 6.199990 12.499900 -26.653100 22.291600 -0.000001 0.000005 12.655600 5.209930 2.464320 12.994500 -0.242716 -4.980390 86.945300 10.902800 -74.242900 -5.348130 -0.000001 -0.000004 -55.022200 -7.704200 -7.534980 -24.328900 0.000322 -0.000009 -4.001990 -12.768000 -17.561400 -22.291500 -0.000108 -0.000004 9.019270 5.251690 1.388380 -2.192480 -6.469440 -0.000000 -171.286000 -13.275300 -6.968130 39.081100 -0.000007 -0.000012 -0.383891 0.330083 49.310800 40.985400 -0.000006 -0.000013 -1.743970 1.993840 -80.444300 11.754300 -0.000000 0.000003 -0.000252 -0.002249 -16.661800 -2.192510 6.469440 -0.000001 179.128000 9.479040 172.025000 -39.081100 -0.002282 -0.040193 0.046339 -0.037127 49.250600 -40.985400 0.000008 0.000006 8.115040 7.630750 -79.779000 -11.754300 -0.000006 -0.000006 -0.385414 -0.479143 -17.845400
0.000000 0.000000 0.000000 0.000000 0.000000 -0.000000 -2.003650 88.468300 0.745071 87.893600 -5.731340 8.235510 15.735700 0.000005 -0.000001 70.438400 83.430900 -71.447100 8.984550 -0.406207 -0.000000 4.587050 -4.363130 -1.841000 16.377300 -0.000001 -0.000001 5.576130 0.175158 1.158960 6.456720 -0.000001 -0.000000 -2.739400 4.363200 1.448240 12.994200 -0.242716 4.980390 -90.661400 1.937490 -71.146900 5.348090 -0.000007 -0.000001 -68.499500 26.249200 -5.606670 24.328600 0.000019 0.000005 6.074660 12.109200 -26.899200 22.291600 -0.000001 0.000005 10.400200 5.247860 1.487500 12.994500 -0.242716 -4.980390 87.370700 8.851810 -73.383100 -5.348130 -0.000001 -0.000004 -49.445800 -16.779700 -14.524200 -24.328900 0.000322 -0.000009 -5.128550 -15.335800 -18.738600 -22.291500 -0.000108 -0.000004 9.590480 5.243530 1.607260 -2.192480 -6.469440 -0.000000 -171.871000 -12.901500 -6.351510 39.081100 -0.000007 -0.000012 -0.259831 0.291880 41.676000 40.985400 -0.000006 -0.000013 -1.310510 3.965790 -76.237600 11.754300 -0.000000 0.000003 -0.000121 -0.001207 -16.623700 -2.192510 6.469440 -0.000001 179.289000 11.877400 173.304000 -39.081100 -0.002282 -0.040193 0.040481 -0.041682 41.753800 -40.985400 0.000008 0.000006 7.609540 8.079250 -75.800400 -11.754300 -0.000006 -0.000006 -0.313006 -0.397772 -18.276500
0.000000 0.000000 0.000000 0.000000 0.000000 -0.000000 -2.073390 89.879800 0.748720 87.969800 -3.797460 6.701740 15.735700 0.000005 -0.000001 68.245500 84.589800 -69.962300 8.984550 -0.406207 -0.000000 2.232270 -3.924530 -3.354620 16.377300 -0.000001 -0.000001 8.216840 -0.149189 0.937778 6.456720 -0.000001 -0.000000 -1.421980 2.998730 2.720190 12.994200 -0.242716 4.980390 -90.485300 1.341880 -70.115300 5.348090 -0.000007 -0.000001 -68.772100 25.330400 -5.154470 24.328600 0.000019 0.000005 6.016460 12.054400 -26.778400 22.291600 -0.000001 0.000005 9.020160 5.252160 1.376020 12.994500 -0.242716 -4.980390 88.141600 6.475750 -73.953000 -5.348130 -0.000001 -0.000004 -44.026400 -29.417700 -23.980600 -24.328900 0.000322 -0.000009 -8.115200 -19.372900 -23.253500 -22.291500 -0.000108 -0.000004 13.400100 5.322480 -0.519198 -2.192480 -6.469440 -0.000000 -172.152000 -13.438100 -5.319930 39.081100 -0.000007 -0.000012 -0.192679 0.267901 35.724800 40.985400 -0.000006 -0.000013 -0.838039 5.964090 -72.988700 11.754300 -0.000000 0.000003 -0.000071 -0.000767 -16.607200 -2.192510 6.469440 -0.000001 179.155000 14.265100 174.928000 -39.081100 -0.002282 -0.040193 0.031680 -0.039516 35.695700 -40.985400 0.000008 0.000006 7.246530 9.256760 -72.887300 -11.754300 -0.000006 -0.000006 -0.231854 -0.305515 -18.398200
